<?xml version="1.0" encoding="UTF-8"?>
<!-- Created with Inkscape (http://www.inkscape.org/) -->
<svg width="100%" height="100%" version="1.1" viewBox="0 0 100 100" xmlns="http://www.w3.org/2000/svg" xmlns:cc="http://creativecommons.org/ns#" xmlns:dc="http://purl.org/dc/elements/1.1/" xmlns:rdf="http://www.w3.org/1999/02/22-rdf-syntax-ns#">
 <metadata>
  <rdf:RDF>
   <cc:Work rdf:about="">
    <dc:format>image/svg+xml</dc:format>
    <dc:type rdf:resource="http://purl.org/dc/dcmitype/StillImage"/>
    <dc:title/>
   </cc:Work>
  </rdf:RDF>
 </metadata>
 <g transform="translate(-30.665 1085)">
  <g transform="matrix(167.41 0 0 168.05 30.663 -49661)">
   <rect transform="matrix(.71575 -.69836 .69856 .71556 0 0)" x="-202.48" y="211.89" width="1.2437" height="1.2437" fill="#fde1c8" stroke="#fde1c8" stroke-width=".065814"/>
   <g fill="none" stroke="#fde1c8">
    <rect x=".13246" y="289.19" width="3.8361" height="3.8361" stroke-width=".26491"/>
    <rect x="3.9689" y="289.19" width="3.8361" height="3.8361" stroke-width=".26491"/>
    <rect x=".13246" y="293.03" width="3.8361" height="3.8361" stroke-width=".26491"/>
    <rect x="3.9729" y="293.04" width="3.8282" height="3.8282" stroke-width=".27284"/>
   </g>
   <g fill="#fde1c8" font-family="sans-serif" letter-spacing="0px" word-spacing="0px">
    <text transform="scale(1.026 .97463)" x="1.1237376" y="299.5376" font-size="2.5125px" stroke-width=".062812" style="line-height:1.25" xml:space="preserve"><tspan x="1.1237376" y="299.5376" fill="#fde1c8" stroke-width=".062812">S</tspan></text>
    <text transform="scale(1.2349 .80981)" x="4.3214374" y="360.54568" font-size="3.1372px" stroke-width=".078431" style="line-height:1.25" xml:space="preserve"><tspan x="4.3214374" y="360.54568" fill="#fde1c8" stroke-width=".078431">I</tspan></text>
    <text transform="scale(1.2349 .80981)" x="4.3214374" y="365.37375" font-size="3.1372px" stroke-width=".078431" style="line-height:1.25" xml:space="preserve"><tspan x="4.3214374" y="365.37375" fill="#fde1c8" stroke-width=".078431">I</tspan></text>
    <text transform="scale(.95758 1.0443)" x="1.1427516" y="283.33194" font-size="2.4328px" stroke-width=".06082" style="line-height:1.25" xml:space="preserve"><tspan x="1.1427516" y="283.33194" fill="#fde1c8" stroke-width=".06082">R</tspan></text>
   </g>
  </g>
 </g>
</svg>
