<?xml version="1.0" encoding="utf-8"?>
<!-- Generator: Adobe Illustrator 25.0.1, SVG Export Plug-In . SVG Version: 6.00 Build 0)  -->
<svg version="1.1" id="Layer_1" xmlns="http://www.w3.org/2000/svg" xmlns:xlink="http://www.w3.org/1999/xlink" x="0px" y="0px"
	 viewBox="0 0 76.29 100" style="enable-background:new 0 0 76.29 100;" xml:space="preserve">
<style type="text/css">
	.st0{fill:#F25733;}
	.st1{fill:#FFFFFF;}
</style>
<g>
	<g>
		<path class="st0" d="M32.09,71.18c-6.2-0.65-12.16-2.92-17.33-6.69C7.01,58.86,1.93,50.54,0.44,41.08
			c-1.49-9.46,0.8-18.94,6.44-26.68C12.52,6.65,20.84,1.57,30.3,0.08c3.56-0.56,6.89,1.87,7.45,5.43c0.56,3.56-1.87,6.89-5.43,7.45
			c-6.02,0.95-11.31,4.18-14.9,9.11s-5.04,10.96-4.1,16.98c0.95,6.02,4.18,11.31,9.11,14.9c4.93,3.59,10.96,5.04,16.98,4.1
			c3.56-0.56,6.89,1.87,7.45,5.43c0.56,3.56-1.87,6.89-5.43,7.45C38.3,71.43,35.17,71.51,32.09,71.18z"/>
	</g>
	<g>
		<path class="st0" d="M58.7,15.93c-1.11,1.52-2.74,2.52-4.59,2.81c-0.62,0.1-1.23,0.11-1.83,0.05c-1.22-0.13-2.38-0.57-3.4-1.31
			c-1.52-1.1-2.52-2.74-2.81-4.59c-0.6-3.83,2.02-7.44,5.85-8.04c1.86-0.29,3.72,0.16,5.23,1.26c1.52,1.1,2.52,2.74,2.81,4.59
			C60.26,12.55,59.81,14.41,58.7,15.93z"/>
	</g>
	<g>
		<path class="st0" d="M69.84,21.43c-0.55,0.76-1.37,1.26-2.3,1.41c-0.31,0.05-0.62,0.05-0.92,0.02c-0.61-0.06-1.19-0.29-1.7-0.66
			c-0.76-0.55-1.26-1.37-1.4-2.3c-0.3-1.92,1.01-3.72,2.93-4.02c0.93-0.15,1.86,0.08,2.62,0.63c0.76,0.55,1.26,1.37,1.4,2.3
			C70.61,19.74,70.39,20.67,69.84,21.43z"/>
	</g>
	<g>
		<path class="st0" d="M44.3,99.97c-2.87-0.3-5.29-2.49-5.76-5.47c-0.56-3.56,1.87-6.89,5.43-7.45c6.02-0.95,11.31-4.18,14.9-9.11
			c3.59-4.93,5.04-10.96,4.1-16.98c-0.95-6.02-4.18-11.31-9.11-14.9c-4.93-3.59-10.96-5.04-16.98-4.1
			c-3.56,0.56-6.89-1.87-7.45-5.43c-0.56-3.56,1.87-6.89,5.43-7.45c9.46-1.49,18.94,0.8,26.68,6.44
			c7.74,5.64,12.83,13.96,14.31,23.42c1.49,9.46-0.8,18.94-6.44,26.68c-5.64,7.74-13.96,12.83-23.42,14.31
			C45.42,100.01,44.85,100.02,44.3,99.97z"/>
	</g>
	<g>
		<circle class="st0" cx="23.6" cy="88.23" r="6.5"/>
		<path class="st0" d="M24.02,81.1c1.22,0.13,2.38,0.57,3.4,1.31c1.52,1.11,2.52,2.74,2.81,4.59c0.6,3.83-2.02,7.44-5.86,8.04
			c-1.86,0.29-3.72-0.16-5.23-1.26c-1.52-1.11-2.52-2.74-2.81-4.59c-0.29-1.86,0.16-3.72,1.26-5.23c1.11-1.52,2.74-2.52,4.59-2.81
			C22.8,81.06,23.41,81.04,24.02,81.1z M22.65,94.05c0.51,0.05,1.04,0.04,1.56-0.04c3.26-0.51,5.49-3.58,4.98-6.84
			c-0.25-1.58-1.1-2.96-2.39-3.91c-1.29-0.94-2.87-1.32-4.45-1.07c-1.58,0.25-2.96,1.1-3.91,2.39c-0.94,1.29-1.32,2.87-1.07,4.45
			l0,0c0.25,1.58,1.1,2.96,2.39,3.91C20.62,93.57,21.61,93.94,22.65,94.05z"/>
	</g>
	<g>
		<circle class="st0" cx="9.6" cy="80.23" r="3.5"/>
		<path class="st0" d="M9.67,77.03c0.61,0.06,1.19,0.29,1.7,0.66c0.76,0.55,1.26,1.37,1.4,2.3c0.3,1.92-1.01,3.72-2.93,4.02
			c-0.93,0.15-1.86-0.08-2.62-0.63c-0.76-0.55-1.26-1.37-1.4-2.3c-0.15-0.93,0.08-1.86,0.63-2.62c0.55-0.76,1.37-1.26,2.3-1.4
			C9.06,77,9.37,76.99,9.67,77.03z M8.98,83.5c0.26,0.03,0.52,0.02,0.78-0.02c1.63-0.26,2.75-1.79,2.49-3.42
			c-0.12-0.79-0.55-1.48-1.19-1.95c-0.65-0.47-1.44-0.66-2.22-0.54c-0.79,0.12-1.48,0.55-1.95,1.19c-0.47,0.65-0.66,1.44-0.54,2.22
			l0,0c0.12,0.79,0.55,1.48,1.19,1.95C7.97,83.26,8.47,83.45,8.98,83.5z"/>
	</g>
</g>
</svg>
